<?xml version="1.0" encoding="UTF-8" standalone="no"?>
<!-- Created with Inkscape (http://www.inkscape.org/) -->

<svg
   xmlns:dc="http://purl.org/dc/elements/1.1/"
   xmlns:cc="http://creativecommons.org/ns#"
   xmlns:rdf="http://www.w3.org/1999/02/22-rdf-syntax-ns#"
   xmlns:svg="http://www.w3.org/2000/svg"
   xmlns="http://www.w3.org/2000/svg"
   version="1.1"
   width="744.09448"
   height="1052.3622"
   id="svg2">
  <defs
     id="defs4" />
  <metadata
     id="metadata7">
    <rdf:RDF>
      <cc:Work
         rdf:about="">
        <dc:format>image/svg+xml</dc:format>
        <dc:type
           rdf:resource="http://purl.org/dc/dcmitype/StillImage" />
        <dc:title></dc:title>
      </cc:Work>
    </rdf:RDF>
  </metadata>
  <g
     id="layer1">
    <path
       d="m 359.28203,235.34718 c -1.27859,21.73593 -20.45734,94.6152 -38.35752,113.79396 -17.90017,19.17875 -67.76493,56.25768 -74.15785,80.55077 -6.39292,24.29309 -20.45734,70.3221 -14.06442,89.50086 6.39292,19.17876 24.29309,79.27219 40.91468,80.55077 16.62159,1.27859 69.04352,23.01451 71.60069,40.91468 2.55716,17.90018 12.78583,223.75216 12.78583,223.75216 0,0 3.83575,-226.30932 12.78584,-233.98083 8.95009,-7.6715 44.75043,-31.96459 58.81485,-33.24317 14.06442,-1.27859 52.42193,-12.78584 61.37202,-30.68601 8.95009,-17.90017 20.45734,-62.6506 19.17876,-80.55078 -1.27859,-17.90017 -10.22867,-75.43644 -24.2931,-83.10794 -14.06442,-7.6715 -60.09343,-29.40742 -76.71502,-49.86476 C 392.5252,332.51955 359.28203,235.34718 359.28203,235.34718 z"
       id="path2985"
       style="fill:none;stroke:#000000;stroke-width:1px;stroke-linecap:butt;stroke-linejoin:miter;stroke-opacity:1" />
    <path
       d="m 357.13083,824.55713 c -0.0997,-3.2623 -0.74122,-15.92028 -1.42555,-28.12885 -0.68433,-12.20857 -2.44286,-43.7735 -3.90784,-70.14429 -4.28982,-77.22007 -5.33651,-88.31482 -8.78924,-93.16372 -8.10399,-11.38101 -36.44207,-26.5054 -61.49513,-32.82073 -10.78524,-2.71872 -12.60654,-3.6043 -16.25096,-7.90188 -7.44394,-8.77803 -15.7677,-27.54097 -27.36162,-61.67709 -6.21458,-18.29767 -6.60997,-29.81607 -1.81461,-52.86303 4.18364,-20.10701 11.93892,-49.13253 14.40987,-53.93156 5.78104,-11.22776 18.22151,-24.7699 47.10909,-51.28077 25.84592,-23.71946 29.41149,-27.98735 36.79413,-44.0416 8.42793,-18.32734 20.08067,-56.23562 23.88802,-77.71163 l 1.65729,-9.34825 10.42893,27.88771 c 13.55863,36.25674 24.8041,62.61431 31.84936,74.64972 9.61359,16.42291 25.25559,28.80051 60.2101,47.6446 9.8451,5.30752 19.44461,10.4979 21.33226,11.53418 8.066,4.42811 14.98552,22.08837 21.00828,53.61823 6.01091,31.46771 4.68863,48.91329 -6.49832,85.73662 -7.62982,25.11453 -11.77078,31.06268 -27.65462,39.72354 -10.24801,5.58787 -23.09744,10.06428 -37.0693,12.914 -12.3825,2.52555 -17.22047,4.50367 -32.31868,13.21424 -18.17782,10.48729 -31.15126,20.37215 -32.75178,24.9546 -3.36195,9.62556 -6.91991,64.21023 -9.55337,146.56334 -0.88825,27.77723 -1.69659,47.83491 -1.79631,44.57262 l 0,0 z"
       id="path3011"
       style="fill:#ffff00;fill-opacity:1;stroke:#000000;stroke-width:3.59282017;stroke-linecap:round;stroke-linejoin:round;stroke-miterlimit:4;stroke-opacity:1;stroke-dasharray:3.59282026, 14.37128104;stroke-dashoffset:0" />
  </g>
</svg>
