<?xml version="1.0" encoding="UTF-8" standalone="no"?>
<!-- Created with Inkscape (http://www.inkscape.org/) -->

<svg
   xmlns:dc="http://purl.org/dc/elements/1.1/"
   xmlns:cc="http://creativecommons.org/ns#"
   xmlns:rdf="http://www.w3.org/1999/02/22-rdf-syntax-ns#"
   xmlns:svg="http://www.w3.org/2000/svg"
   xmlns="http://www.w3.org/2000/svg"
   xmlns:xlink="http://www.w3.org/1999/xlink"
   xmlns:sodipodi="http://sodipodi.sourceforge.net/DTD/sodipodi-0.dtd"
   xmlns:inkscape="http://www.inkscape.org/namespaces/inkscape"
   width="744.09448819"
   height="1052.3622047"
   id="svg2"
   version="1.1"
   inkscape:version="0.48.4 r9939"
   sodipodi:docname="drawing.svg">
  <defs
     id="defs4">
    <linearGradient
       id="linearGradient3997">
      <stop
         id="stop4007"
         offset="0"
         style="stop-color:#f4f01b;stop-opacity:0.9921875;" />
      <stop
         style="stop-color:#fbff78;stop-opacity:0;"
         offset="1"
         id="stop4001" />
    </linearGradient>
    <linearGradient
       id="linearGradient3963">
      <stop
         style="stop-color:#9affff;stop-opacity:1;"
         offset="0"
         id="stop3965" />
      <stop
         style="stop-color:#fffc1c;stop-opacity:0.2890625;"
         offset="1"
         id="stop3967" />
    </linearGradient>
    <linearGradient
       inkscape:collect="always"
       xlink:href="#linearGradient3963"
       id="linearGradient3971"
       x1="326.88342"
       y1="198.19398"
       x2="418.97186"
       y2="198.19398"
       gradientUnits="userSpaceOnUse" />
    <filter
       color-interpolation-filters="sRGB"
       inkscape:collect="always"
       id="filter4085-2"
       x="-0.2174511"
       width="1.4349022"
       y="-0.38407686"
       height="1.7681537">
      <feGaussianBlur
         inkscape:collect="always"
         stdDeviation="58.616739"
         id="feGaussianBlur4087-0" />
    </filter>
  </defs>
  <sodipodi:namedview
     id="base"
     pagecolor="#ffffff"
     bordercolor="#666666"
     borderopacity="1.0"
     inkscape:pageopacity="0.0"
     inkscape:pageshadow="2"
     inkscape:zoom="2"
     inkscape:cx="362.31789"
     inkscape:cy="762.18177"
     inkscape:document-units="px"
     inkscape:current-layer="layer4"
     showgrid="false"
     inkscape:window-width="1920"
     inkscape:window-height="1033"
     inkscape:window-x="0"
     inkscape:window-y="25"
     inkscape:window-maximized="1" />
  <metadata
     id="metadata7">
    <rdf:RDF>
      <cc:Work
         rdf:about="">
        <dc:format>image/svg+xml</dc:format>
        <dc:type
           rdf:resource="http://purl.org/dc/dcmitype/StillImage" />
        <dc:title></dc:title>
      </cc:Work>
    </rdf:RDF>
  </metadata>
  <g
     inkscape:label="Layer 1"
     inkscape:groupmode="layer"
     id="layer1">
    <path
       sodipodi:type="arc"
       style="fill:#000080;fill-opacity:1;stroke:none;stroke-width:2.80999993999999997;stroke-linecap:round;stroke-linejoin:round;stroke-miterlimit:4;stroke-opacity:1;stroke-dasharray:2.81000000000000005, 11.24000000000000021;stroke-dashoffset:0"
       id="path2985"
       sodipodi:cx="468.37405"
       sodipodi:cy="531.46021"
       sodipodi:rx="329.55023"
       sodipodi:ry="329.55023"
       d="m 797.92429,531.46021 a 329.55023,329.55023 0 1 1 -659.10047,0 329.55023,329.55023 0 1 1 659.10047,0 z"
       transform="translate(-97.446983,-69.822145)" />
    <path
       sodipodi:type="star"
       style="fill:#00ffff;fill-opacity:1;stroke:none;stroke-width:2.80999993999999997;stroke-linecap:round;stroke-linejoin:round;stroke-miterlimit:4;stroke-opacity:1;stroke-dasharray:2.81000000000000005, 11.24000000000000021;stroke-dashoffset:0"
       id="path2987"
       sodipodi:sides="5"
       sodipodi:cx="188.85042"
       sodipodi:cy="236.92857"
       sodipodi:r1="11.530562"
       sodipodi:r2="5.765281"
       sodipodi:arg1="0.70862627"
       sodipodi:arg2="1.3369448"
       inkscape:flatsided="false"
       inkscape:rounded="0"
       inkscape:randomized="0"
       d="m 197.60507,244.43256 -7.41869,-1.89563 -5.76734,5.03668 -0.48965,-7.64138 -6.57237,-3.92865 7.11607,-2.827 1.7054,-7.46472 4.88762,5.8942 7.62636,-0.6848 -4.09535,6.46981 z"
       inkscape:transform-center-x="0.82567182"
       inkscape:transform-center-y="-0.28584022" />
    <path
       sodipodi:type="star"
       style="fill:#00ffff;fill-opacity:1;stroke:none;stroke-width:2.80999993999999997;stroke-linecap:round;stroke-linejoin:round;stroke-miterlimit:4;stroke-opacity:1;stroke-dasharray:2.81000000000000005, 11.24000000000000021;stroke-dashoffset:0"
       id="path2989"
       sodipodi:sides="5"
       sodipodi:cx="393.9595"
       sodipodi:cy="171.89398"
       sodipodi:r1="7.2925677"
       sodipodi:r2="3.6462839"
       sodipodi:arg1="0.5404195"
       sodipodi:arg2="1.168738"
       inkscape:flatsided="false"
       inkscape:rounded="0"
       inkscape:randomized="0"
       d="m 400.21283,175.64598 -4.82649,-0.39648 -3.06281,3.75118 -1.1144,-4.71278 -4.51404,-1.75373 4.13775,-2.51619 0.27298,-4.83504 3.67167,3.15769 4.68276,-1.23448 -1.86854,4.46774 z"
       inkscape:transform-center-x="0.50554428"
       inkscape:transform-center-y="0.1978279"
       transform="translate(12.819317,-8.4419891)" />
    <path
       sodipodi:type="star"
       style="fill:#00ffff;fill-opacity:1;stroke:none;stroke-width:2.80999993999999997;stroke-linecap:round;stroke-linejoin:round;stroke-miterlimit:4;stroke-opacity:1;stroke-dasharray:2.81000000000000005, 11.24000000000000021;stroke-dashoffset:0"
       id="path2991"
       sodipodi:sides="5"
       sodipodi:cx="487.75937"
       sodipodi:cy="188.15263"
       sodipodi:r1="8.0081635"
       sodipodi:r2="4.0040817"
       sodipodi:arg1="0.89605538"
       sodipodi:arg2="1.5243739"
       inkscape:flatsided="false"
       inkscape:rounded="0"
       inkscape:randomized="0"
       d="m 492.76203,194.40596 -4.81685,-2.25356 -4.58717,2.69043 0.65477,-5.27748 -3.97626,-3.53127 5.22152,-1.00811 2.1297,-4.87287 2.57231,4.65444 5.29249,0.51966 -3.63175,3.88471 z"
       inkscape:transform-center-x="0.047126168"
       inkscape:transform-center-y="-0.26867265"
       transform="matrix(0.41039174,0,0,0.41039174,292.21042,113.52068)" />
    <path
       sodipodi:type="star"
       style="fill:#00ffff;fill-opacity:1;stroke:none;stroke-width:2.80999993999999997;stroke-linecap:round;stroke-linejoin:round;stroke-miterlimit:4;stroke-opacity:1;stroke-dasharray:2.81000000000000005, 11.24000000000000021;stroke-dashoffset:0"
       id="path2993"
       sodipodi:sides="5"
       sodipodi:cx="315.1676"
       sodipodi:cy="209.41394"
       sodipodi:r1="8.8435373"
       sodipodi:r2="4.4217687"
       sodipodi:arg1="2.3561945"
       sodipodi:arg2="2.984513"
       inkscape:flatsided="false"
       inkscape:rounded="0"
       inkscape:randomized="0"
       d="m 308.91428,215.66727 1.88599,-5.56161 -3.51232,-4.7066 5.87221,0.0751 3.39088,-4.79484 1.74323,5.608 5.60799,1.74323 -4.79483,3.39087 0.075,5.87221 -4.70659,-3.51232 z"
       inkscape:transform-center-x="-0.42750463"
       inkscape:transform-center-y="-0.42750463"
       transform="translate(2.8139964,12.506651)" />
    <path
       sodipodi:type="star"
       style="fill:#00ffff;fill-opacity:1;stroke:none;stroke-width:2.80999993999999997;stroke-linecap:round;stroke-linejoin:round;stroke-miterlimit:4;stroke-opacity:1;stroke-dasharray:2.81000000000000005, 11.24000000000000021;stroke-dashoffset:0"
       id="path2995"
       sodipodi:sides="5"
       sodipodi:cx="400.83813"
       sodipodi:cy="210.6646"
       sodipodi:r1="5.0415921"
       sodipodi:r2="2.5207961"
       sodipodi:arg1="0.51914611"
       sodipodi:arg2="1.1474646"
       inkscape:flatsided="false"
       inkscape:rounded="0"
       inkscape:randomized="0"
       d="m 405.21546,213.16593 -3.34178,-0.20306 -2.06178,2.63777 -0.83955,-3.24098 -3.14579,-1.14575 2.82291,-1.79998 0.11758,-3.34588 2.5842,2.12853 3.21846,-0.92212 -1.22579,3.11548 z"
       inkscape:transform-center-x="0.31712488"
       inkscape:transform-center-y="0.16974615"
       transform="translate(64.40925,0)" />
    <path
       sodipodi:type="star"
       style="fill:#00ffff;fill-opacity:1;stroke:none;stroke-width:2.80999993999999997;stroke-linecap:round;stroke-linejoin:round;stroke-miterlimit:4;stroke-opacity:1;stroke-dasharray:2.81000000000000005, 11.24000000000000021;stroke-dashoffset:0"
       id="path2997"
       sodipodi:sides="5"
       sodipodi:cx="533.72131"
       sodipodi:cy="211.91526"
       sodipodi:r1="2.520796"
       sodipodi:r2="1.260398"
       sodipodi:arg1="1.6951513"
       sodipodi:arg2="2.3234699"
       inkscape:flatsided="false"
       inkscape:rounded="0"
       inkscape:randomized="0"
       d="m 533.40865,214.41658 -0.54894,-1.58141 -1.61392,-0.44433 1.33438,-1.01075 -0.0761,-1.67224 1.37363,0.95674 1.56686,-0.58918 -0.48543,1.60205 1.04452,1.30811 -1.67364,0.0334 z"
       inkscape:transform-center-x="0.096619189"
       inkscape:transform-center-y="0.14696546" />
    <path
       sodipodi:type="star"
       style="fill:#00ffff;fill-opacity:1;stroke:none;stroke-width:2.80999993999999997;stroke-linecap:round;stroke-linejoin:round;stroke-miterlimit:4;stroke-opacity:1;stroke-dasharray:2.81000000000000005, 11.24000000000000021;stroke-dashoffset:0"
       id="path2999"
       sodipodi:sides="5"
       sodipodi:cx="493.38736"
       sodipodi:cy="156.57333"
       sodipodi:r1="2.5783122"
       sodipodi:r2="1.289156"
       sodipodi:arg1="1.3258177"
       sodipodi:arg2="1.9541362"
       inkscape:flatsided="false"
       inkscape:rounded="0"
       inkscape:randomized="0"
       d="m 494.01269,159.07466 -1.1075,-1.30574 -1.7035,0.17209 0.8996,-1.45679 -0.69008,-1.56694 1.66348,0.40539 1.27701,-1.14052 0.12849,1.70734 1.47931,0.86207 -1.58407,0.6498 z"
       inkscape:transform-center-x="-0.19323838"
       inkscape:transform-center-y="0.055075153"
       transform="translate(-3.7519952,8.1293229)" />
    <path
       sodipodi:type="star"
       style="fill:#00ffff;fill-opacity:1;stroke:none;stroke-width:2.80999993999999997;stroke-linecap:round;stroke-linejoin:round;stroke-miterlimit:4;stroke-opacity:1;stroke-dasharray:2.81000000000000005, 11.24000000000000021;stroke-dashoffset:0"
       id="path3001"
       sodipodi:sides="5"
       sodipodi:cx="434.91877"
       sodipodi:cy="152.19601"
       sodipodi:r1="2.0020409"
       sodipodi:r2="1.0010204"
       sodipodi:arg1="0.67474094"
       sodipodi:arg2="1.3030595"
       inkscape:flatsided="false"
       inkscape:rounded="0"
       inkscape:randomized="0"
       d="m 436.48209,153.44668 -1.29851,-0.28531 -0.97117,0.90794 -0.12992,-1.32313 -1.16361,-0.64307 1.21822,-0.53243 0.25202,-1.30538 0.88282,0.99407 1.31937,-0.1637 -0.67261,1.1468 z"
       inkscape:transform-center-x="0.16366749"
       inkscape:transform-center-y="-0.028709592" />
    <path
       sodipodi:type="star"
       style="fill:#00ffff;fill-opacity:1;stroke:none;stroke-width:2.80999993999999997;stroke-linecap:round;stroke-linejoin:round;stroke-miterlimit:4;stroke-opacity:1;stroke-dasharray:2.81000000000000005, 11.24000000000000021;stroke-dashoffset:0"
       id="path3003"
       sodipodi:sides="5"
       sodipodi:cx="348.31022"
       sodipodi:cy="146.56802"
       sodipodi:r1="2.8826405"
       sodipodi:r2="1.4413202"
       sodipodi:arg1="2.4329664"
       sodipodi:arg2="3.0612849"
       inkscape:flatsided="false"
       inkscape:rounded="0"
       inkscape:randomized="0"
       d="m 346.12155,148.44402 0.75199,-1.76037 -1.02384,-1.61745 1.90659,0.17119 1.2219,-1.47354 0.42635,1.86617 1.77902,0.70675 -1.64309,0.98217 -0.12241,1.91034 -1.44184,-1.25917 z"
       inkscape:transform-center-x="-0.20641796"
       inkscape:transform-center-y="-0.071460055" />
    <path
       sodipodi:type="star"
       style="fill:#00ffff;fill-opacity:1;stroke:none;stroke-width:2.80999993999999997;stroke-linecap:round;stroke-linejoin:round;stroke-miterlimit:4;stroke-opacity:1;stroke-dasharray:2.81000000000000005, 11.24000000000000021;stroke-dashoffset:0"
       id="path3005"
       sodipodi:sides="5"
       sodipodi:cx="312.3536"
       sodipodi:cy="155.63534"
       sodipodi:r1="2.4420016"
       sodipodi:r2="1.2210008"
       sodipodi:arg1="2.4468544"
       sodipodi:arg2="3.0751729"
       inkscape:flatsided="false"
       inkscape:rounded="0"
       inkscape:randomized="0"
       d="m 310.47761,157.19868 0.65769,-1.4823 -0.84822,-1.38212 1.61298,0.16745 1.05236,-1.23381 0.33919,1.58578 1.49861,0.61959 -1.40335,0.81262 -0.12616,1.61673 -1.20651,-1.08355 z"
       inkscape:transform-center-x="-0.18504272"
       inkscape:transform-center-y="-0.050084823" />
    <path
       sodipodi:type="star"
       style="fill:#00ffff;fill-opacity:1;stroke:none;stroke-width:2.80999993999999997;stroke-linecap:round;stroke-linejoin:round;stroke-miterlimit:4;stroke-opacity:1;stroke-dasharray:2.81000000000000005, 11.24000000000000021;stroke-dashoffset:0"
       id="path3007"
       sodipodi:sides="5"
       sodipodi:cx="248.25701"
       sodipodi:cy="181.8993"
       sodipodi:r1="2.2546685"
       sodipodi:r2="1.1273342"
       sodipodi:arg1="0.5880026"
       sodipodi:arg2="1.2163211"
       inkscape:flatsided="false"
       inkscape:rounded="0"
       inkscape:randomized="0"
       d="m 250.133,183.14997 -1.4847,-0.19342 -1.00103,1.11341 -0.27485,-1.4718 -1.36825,-0.60798 1.31483,-0.71621 0.15541,-1.48916 1.08746,1.02917 1.4643,-0.31238 -0.64275,1.35227 z"
       inkscape:transform-center-x="0.18841941"
       inkscape:transform-center-y="0.028081743" />
    <path
       style="fill:#1a1a1a;stroke:#000000;stroke-width:1px;stroke-linecap:butt;stroke-linejoin:miter;stroke-opacity:1"
       d="m 353.87582,436.45356 c 8.84354,-8.84354 7.07483,-3.53742 10.61225,-16.80272 3.53741,-13.26531 2.65306,-34.4898 1.7687,-42.44898 -0.88435,-7.95919 -8.84353,-21.22449 -14.14966,-22.10885 -5.30612,-0.88435 -15.91836,-1.7687 -17.68707,6.19048 -1.76871,7.95918 0.88435,13.26531 -6.19048,18.57143 -7.07483,5.30612 -22.10884,0.88435 -29.18367,-2.65306 -7.07483,-3.53742 -8.84354,-45.9864 -8.84354,-45.9864 0,0 40.68027,-28.29932 46.87075,-29.18367 6.19048,-0.88436 67.21088,-6.19048 76.93878,0.88435 9.72789,7.07483 38.91156,7.07483 43.33333,26.53061 4.42177,19.45579 18.57143,40.68028 10.61224,52.17688 -7.95918,11.49659 -45.98639,7.95918 -50.40816,0.88435 -4.42177,-7.07483 -7.95918,-30.06803 -16.80272,-27.41497 -8.84354,2.65306 -19.45578,17.68708 -20.34014,25.64626 -0.88435,7.95919 -6.19047,39.79592 -5.30612,43.33333 0.88436,3.53742 0.88436,12.38096 5.30612,15.91837 4.42177,3.53742 15.91837,14.14966 15.91837,14.14966 l -14.14966,-1.76871 -9.72789,7.07483 -11.4966,-8.84353 -13.2653,4.42177 3.53741,-9.7279 -13.26531,-0.88435 z"
       id="path3009-5"
       inkscape:connector-curvature="0" />
    <path
       style="fill:url(#linearGradient3971);stroke:#d9feff;stroke-width:1px;stroke-linecap:butt;stroke-linejoin:miter;stroke-opacity:1;fill-opacity:1"
       d="M 418.47185,225.96942 C 376.02287,209.1667 327.38342,186.1735 327.38342,186.1735 c 0,0 36.2585,-25.64626 63.67346,-11.4966 27.41497,14.14966 27.41497,51.29252 27.41497,51.29252 z"
       id="path3011-7"
       inkscape:connector-curvature="0" />
    <path
       sodipodi:type="star"
       style="fill:#00ffff;fill-opacity:1;stroke:none;stroke-width:2.80999993999999997;stroke-linecap:round;stroke-linejoin:round;stroke-miterlimit:4;stroke-opacity:1;stroke-dasharray:2.81000000000000005, 11.24000000000000021;stroke-dashoffset:0"
       id="path3049"
       sodipodi:sides="5"
       sodipodi:cx="198.97959"
       sodipodi:cy="324.53905"
       sodipodi:r1="5.5931442"
       sodipodi:r2="2.796572"
       sodipodi:arg1="2.8797933"
       sodipodi:arg2="3.5081118"
       inkscape:flatsided="false"
       inkscape:rounded="0"
       inkscape:randomized="0"
       d="m 193.57702,325.98667 2.79174,-2.44981 -0.43542,-3.6886 3.19261,1.89806 3.37351,-1.55395 -0.8186,3.62289 2.52037,2.72821 -3.69852,0.341 -1.81585,3.24007 -1.46722,-3.41213 z"
       inkscape:transform-center-x="0.090456242"
       inkscape:transform-center-y="0.44733678" />
    <path
       sodipodi:type="star"
       style="fill:#00ffff;fill-opacity:1;stroke:none;stroke-width:2.80999993999999997;stroke-linecap:round;stroke-linejoin:round;stroke-miterlimit:4;stroke-opacity:1;stroke-dasharray:2.81000000000000005, 11.24000000000000021;stroke-dashoffset:0"
       id="path3053"
       sodipodi:sides="5"
       sodipodi:cx="229.93197"
       sodipodi:cy="267.94041"
       sodipodi:r1="9.4008092"
       sodipodi:r2="4.7004044"
       sodipodi:arg1="0.78539816"
       sodipodi:arg2="1.4137167"
       inkscape:flatsided="false"
       inkscape:rounded="0"
       inkscape:randomized="0"
       d="m 236.57935,274.58778 -5.91207,-2.00485 -5.00318,3.73365 0.0798,-6.24224 -5.09698,-3.60455 5.96138,-1.85308 1.85308,-5.96138 3.60455,5.09698 6.24224,-0.0798 -3.73365,5.00318 z"
       inkscape:transform-center-x="0.45444366"
       inkscape:transform-center-y="-0.45444366" />
    <path
       sodipodi:type="star"
       style="fill:#00ffff;fill-opacity:1;stroke:none;stroke-width:2.80999993999999997;stroke-linecap:round;stroke-linejoin:round;stroke-miterlimit:4;stroke-opacity:1;stroke-dasharray:2.81000000000000005, 11.24000000000000021;stroke-dashoffset:0"
       id="path3055"
       sodipodi:sides="5"
       sodipodi:cx="294.4898"
       sodipodi:cy="252.9064"
       sodipodi:r1="5.6626269"
       sodipodi:r2="2.8313133"
       sodipodi:arg1="0.78539816"
       sodipodi:arg2="1.4137167"
       inkscape:flatsided="false"
       inkscape:rounded="0"
       inkscape:randomized="0"
       d="m 298.49389,256.91048 -3.56117,-1.20762 -3.01369,2.24898 0.0481,-3.76005 -3.07019,-2.17122 3.59087,-1.11621 1.11621,-3.59087 2.17122,3.07019 3.76004,-0.0481 -2.24898,3.0137 z"
       inkscape:transform-center-x="0.27373653"
       inkscape:transform-center-y="-0.27373653" />
    <path
       sodipodi:type="star"
       style="fill:#00ffff;fill-opacity:1;stroke:none;stroke-width:2.80999993999999997;stroke-linecap:round;stroke-linejoin:round;stroke-miterlimit:4;stroke-opacity:1;stroke-dasharray:2.81000000000000005, 11.24000000000000021;stroke-dashoffset:0"
       id="path3057"
       sodipodi:sides="5"
       sodipodi:cx="354.62585"
       sodipodi:cy="240.52545"
       sodipodi:r1="5.6626269"
       sodipodi:r2="2.8313133"
       sodipodi:arg1="0.78539816"
       sodipodi:arg2="1.4137167"
       inkscape:flatsided="false"
       inkscape:rounded="0"
       inkscape:randomized="0"
       d="m 358.62994,244.52953 -3.56117,-1.20762 -3.01369,2.24898 0.0481,-3.76005 -3.0702,-2.17122 3.59087,-1.11621 1.11621,-3.59087 2.17122,3.07019 3.76005,-0.0481 -2.24898,3.0137 z"
       inkscape:transform-center-x="0.27373653"
       inkscape:transform-center-y="-0.27373653" />
    <path
       sodipodi:type="star"
       style="fill:#00ffff;fill-opacity:1;stroke:none;stroke-width:2.80999993999999997;stroke-linecap:round;stroke-linejoin:round;stroke-miterlimit:4;stroke-opacity:1;stroke-dasharray:2.81000000000000005, 11.24000000000000021;stroke-dashoffset:0"
       id="path3059"
       sodipodi:sides="5"
       sodipodi:cx="456.32654"
       sodipodi:cy="239.64108"
       sodipodi:r1="6.9070234"
       sodipodi:r2="3.4535117"
       sodipodi:arg1="0.78539816"
       sodipodi:arg2="1.4137167"
       inkscape:flatsided="false"
       inkscape:rounded="0"
       inkscape:randomized="0"
       d="m 461.21054,244.52509 -4.34375,-1.47301 -3.67597,2.74321 0.0586,-4.58635 -3.74489,-2.64835 4.37999,-1.36151 1.3615,-4.37998 2.64836,3.74488 4.58634,-0.0586 -2.74321,3.67597 z"
       inkscape:transform-center-x="0.33389179"
       inkscape:transform-center-y="-0.33389179"
       transform="translate(-5.3153265,-1.2506651)" />
    <path
       sodipodi:type="star"
       style="fill:#00ffff;fill-opacity:1;stroke:none"
       id="path3063"
       sodipodi:sides="12"
       sodipodi:cx="526.19049"
       sodipodi:cy="257.32816"
       sodipodi:r1="9.3403578"
       sodipodi:r2="3.2169726"
       sodipodi:arg1="0.13625509"
       sodipodi:arg2="0.39805448"
       inkscape:flatsided="false"
       inkscape:rounded="0"
       inkscape:randomized="0"
       d="m 535.44428,258.59689 -6.28833,-0.0217 4.41419,4.47867 -5.43498,-3.16301 1.58347,6.08574 -3.12533,-5.45673 -1.67155,6.06213 0.0218,-6.28832 -4.47867,4.41418 3.163,-5.43497 -6.08573,1.58346 5.45673,-3.12532 -6.06214,-1.67155 6.28833,0.0217 -4.41419,-4.47867 5.43498,3.16301 -1.58346,-6.08574 3.12532,5.45673 1.67155,-6.06213 -0.0218,6.28833 4.47867,-4.41419 -3.163,5.43497 6.08573,-1.58346 -5.45673,3.12532 z"
       inkscape:transform-center-x="-0.11794051"
       inkscape:transform-center-y="0.5832558"
       transform="translate(2.1886638,18.759976)" />
    <path
       sodipodi:type="star"
       style="fill:#00ffff;fill-opacity:1;stroke:none;stroke-width:2.80999993999999997;stroke-linecap:round;stroke-linejoin:round;stroke-miterlimit:4;stroke-opacity:1;stroke-dasharray:2.81000000000000005, 11.24000000000000021;stroke-dashoffset:0"
       id="path3065"
       sodipodi:sides="5"
       sodipodi:cx="573.06122"
       sodipodi:cy="245.83157"
       sodipodi:r1="16.685953"
       sodipodi:r2="8.3429761"
       sodipodi:arg1="-2.6179939"
       sodipodi:arg2="-1.9896753"
       inkscape:flatsided="false"
       inkscape:rounded="0"
       inkscape:randomized="0"
       d="m 558.61076,237.4886 11.05706,0.72128 6.8626,-8.69963 2.73084,10.73878 10.3945,3.83839 -9.36931,5.91564 -0.43844,11.07189 -8.52139,-7.08271 -10.66548,3.00442 4.10281,-10.29301 z"
       inkscape:transform-center-x="-1.0720432"
       inkscape:transform-center-y="-0.53897416" />
    <path
       sodipodi:type="star"
       style="fill:#00ffff;fill-opacity:1;stroke:none;stroke-width:2.80999993999999997;stroke-linecap:round;stroke-linejoin:round;stroke-miterlimit:4;stroke-opacity:1;stroke-dasharray:2.81000000000000005, 11.24000000000000021;stroke-dashoffset:0"
       id="path3067"
       sodipodi:sides="5"
       sodipodi:cx="503.19727"
       sodipodi:cy="198.96082"
       sodipodi:r1="4.5093369"
       sodipodi:r2="2.2546685"
       sodipodi:arg1="2.8797933"
       sodipodi:arg2="3.5081118"
       inkscape:flatsided="false"
       inkscape:rounded="0"
       inkscape:randomized="0"
       d="m 498.84158,200.12792 2.25077,-1.97511 -0.35105,-2.97384 2.57397,1.53027 2.71981,-1.25284 -0.65997,2.92086 2.03198,2.19956 -2.98184,0.27492 -1.46398,2.61223 -1.18291,-2.75095 z"
       inkscape:transform-center-x="0.072928154"
       inkscape:transform-center-y="0.36065444"
       transform="translate(5.0026602,21.573972)" />
    <path
       sodipodi:type="star"
       style="fill:#00ffff;fill-opacity:1;stroke:none;stroke-width:2.80999993999999997;stroke-linecap:round;stroke-linejoin:round;stroke-miterlimit:4;stroke-opacity:1;stroke-dasharray:2.81000000000000005, 11.24000000000000021;stroke-dashoffset:0"
       id="path3069"
       sodipodi:sides="5"
       sodipodi:cx="445.71429"
       sodipodi:cy="182.1581"
       sodipodi:r1="4.509337"
       sodipodi:r2="2.2546684"
       sodipodi:arg1="-2.8797933"
       sodipodi:arg2="-2.2514747"
       inkscape:flatsided="false"
       inkscape:rounded="0"
       inkscape:randomized="0"
       d="m 441.35861,180.99099 2.93678,-0.5851 1.1829,-2.75095 1.46398,2.61223 2.98185,0.27492 -2.03198,2.19956 0.65997,2.92086 -2.71982,-1.25284 -2.57396,1.53027 0.35105,-2.97384 z"
       inkscape:transform-center-x="0.072928154"
       inkscape:transform-center-y="-0.36065444" />
    <path
       sodipodi:type="star"
       style="fill:#00ffff;fill-opacity:1;stroke:none;stroke-width:2.80999993999999997;stroke-linecap:round;stroke-linejoin:round;stroke-miterlimit:4;stroke-opacity:1;stroke-dasharray:2.81000000000000005, 11.24000000000000021;stroke-dashoffset:0"
       id="path3071"
       sodipodi:sides="5"
       sodipodi:cx="585.4422"
       sodipodi:cy="315.69553"
       sodipodi:r1="6.1904764"
       sodipodi:r2="3.095238"
       sodipodi:arg1="0"
       sodipodi:arg2="0.62831853"
       inkscape:flatsided="false"
       inkscape:rounded="0"
       inkscape:randomized="0"
       d="m 591.63268,315.69553 -3.68638,1.81933 -0.59114,4.06816 -2.86944,-2.94375 -4.05172,0.69493 1.91296,-3.63867 -1.91296,-3.63867 4.05172,0.69492 2.86944,-2.94375 0.59114,4.06816 z"
       inkscape:transform-center-x="-0.59113787"
       transform="translate(-5.3153265,0.31266626)" />
    <path
       sodipodi:type="star"
       style="fill:#00ffff;fill-opacity:1;stroke:none;stroke-width:2.80999993999999997;stroke-linecap:round;stroke-linejoin:round;stroke-miterlimit:4;stroke-opacity:1;stroke-dasharray:2.81000000000000005, 11.24000000000000021;stroke-dashoffset:0"
       id="path3073"
       sodipodi:sides="5"
       sodipodi:cx="403.26531"
       sodipodi:cy="267.94041"
       sodipodi:r1="7.1298878"
       sodipodi:r2="3.5649438"
       sodipodi:arg1="0"
       sodipodi:arg2="0.62831853"
       inkscape:flatsided="false"
       inkscape:rounded="0"
       inkscape:randomized="0"
       d="m 410.39521,267.9404 -4.24579,2.09542 -0.68084,4.68551 -3.30489,-3.39047 -4.66657,0.80038 2.20326,-4.19084 -2.20326,-4.19084 4.66657,0.80038 3.30489,-3.39047 0.68084,4.68551 z"
       inkscape:transform-center-x="-0.6808437" />
    <path
       sodipodi:type="star"
       style="fill:#00ffff;fill-opacity:1;stroke:none;stroke-width:2.80999993999999997;stroke-linecap:round;stroke-linejoin:round;stroke-miterlimit:4;stroke-opacity:1;stroke-dasharray:2.81000000000000005, 11.24000000000000021;stroke-dashoffset:0"
       id="path3075"
       sodipodi:sides="5"
       sodipodi:cx="471.36054"
       sodipodi:cy="272.36218"
       sodipodi:r1="5.6626269"
       sodipodi:r2="2.8313134"
       sodipodi:arg1="0.78539816"
       sodipodi:arg2="1.4137167"
       inkscape:flatsided="false"
       inkscape:rounded="0"
       inkscape:randomized="0"
       d="m 475.36462,276.36626 -3.56117,-1.20762 -3.01369,2.24898 0.0481,-3.76005 -3.0702,-2.17122 3.59087,-1.11621 1.11621,-3.59087 2.17122,3.07019 3.76005,-0.0481 -2.24898,3.0137 z"
       inkscape:transform-center-x="0.27373653"
       inkscape:transform-center-y="-0.27373653" />
    <path
       sodipodi:type="star"
       style="fill:#00ffff;fill-opacity:1;stroke:none;stroke-width:2.80999993999999997;stroke-linecap:round;stroke-linejoin:round;stroke-miterlimit:4;stroke-opacity:1;stroke-dasharray:2.81000000000000005, 11.24000000000000021;stroke-dashoffset:0"
       id="path3077"
       sodipodi:sides="5"
       sodipodi:cx="252.04082"
       sodipodi:cy="214.8792"
       sodipodi:r1="4.4217687"
       sodipodi:r2="2.2108843"
       sodipodi:arg1="1.0471976"
       sodipodi:arg2="1.6755161"
       inkscape:flatsided="false"
       inkscape:rounded="0"
       inkscape:randomized="0"
       d="m 254.2517,218.70856 -2.44198,-1.63059 -2.72764,1.08724 0.79617,-2.82635 -1.87692,-2.25816 2.93405,-0.11619 1.56764,-2.48286 1.01717,2.75454 2.84577,0.72367 -2.3054,1.81858 z"
       inkscape:transform-center-x="-0.14282787"
       inkscape:transform-center-y="-0.28409088"
       transform="translate(0.93799879,3.7519952)" />
  </g>
  <g
     inkscape:groupmode="layer"
     id="layer4"
     inkscape:label="Layer#2"
     style="display:inline">
    <path
       transform="translate(312.09067,-85.839651)"
       sodipodi:type="star"
       style="fill:#00ffff;fill-opacity:1;stroke:none"
       id="path3051"
       sodipodi:sides="31"
       sodipodi:cx="126.46259"
       sodipodi:cy="288.28055"
       sodipodi:r1="14.396236"
       sodipodi:r2="3.9687099"
       sodipodi:arg1="0.78539816"
       sodipodi:arg2="1.8537564"
       inkscape:flatsided="false"
       inkscape:rounded="0"
       inkscape:randomized="0"
       d="m 136.64227,298.46022 -11.28774,-6.36878 9.03021,8.20956 -9.77465,-8.51062 7.19278,9.85928 -7.86138,-10.30404 5.06088,11.10536 -5.62627,-11.6756 2.7218,11.89678 -3.16083,-12.56915 0.27128,12.20114 -0.56597,-12.94813 -2.19035,12.006 2.05206,-12.79702 -4.5623,11.31932 4.58607,-12.12198 -6.74747,10.16923 6.93233,-10.95068 -8.6564,8.60281 8.99478,-9.33105 -10.21094,6.68419 10.68898,-7.32941 -11.34743,4.49192 11.94558,-5.0277 -12.01937,2.11575 12.71312,-2.52015 -12.19923,-0.34705 12.96018,0.0906 -11.87965,-2.79563 12.67666,2.69758 -11.07372,-5.12976 11.87415,5.19415 -9.81442,-7.25387 10.5855,7.47807 -8.15333,-9.08101 8.8635,9.45584 -6.15844,-10.53637 6.77861,11.04649 -3.91141,-11.56039 4.41621,12.1849 -1.50426,-12.1111 1.87301,12.82444 0.96448,-12.16599 -0.74687,12.93896 3.39373,-11.72281 -3.33618,12.52376 5.68405,-10.79968 -5.7889,11.59582 7.74166,-9.43442 -8.00463,10.19316 9.48232,-7.68292 -9.89263,8.37319 10.83477,-5.61687 -11.37564,6.21041 11.74365,-3.32087 -12.39293,3.79339 12.17174,-0.88891 -12.90284,1.22105 12.10152,1.57945 -12.88452,-1.40127 11.53586,3.98313 -12.3387,-3.96621 z"
       inkscape:transform-center-x="0.69592712"
       inkscape:transform-center-y="-0.69592712" />
    <path
       sodipodi:type="star"
       style="fill:#00ffff;fill-opacity:1;stroke:none"
       id="path3061"
       sodipodi:sides="42"
       sodipodi:cx="487.2789"
       sodipodi:cy="254.67511"
       sodipodi:r1="9.8972597"
       sodipodi:r2="4.1120167"
       sodipodi:arg1="0.39060145"
       sodipodi:arg2="-0.35013131"
       inkscape:flatsided="false"
       inkscape:rounded="0"
       inkscape:randomized="0"
       d="m 496.4307,258.44344 -5.28927,-5.17884 4.62541,6.50075 -4.45832,-5.90931 3.60486,7.11752 -3.5278,-6.50779 2.50379,7.5753 -2.51845,-6.9609 1.34678,7.86387 -1.45286,-7.25851 0.15969,7.97677 -0.3548,-7.39398 -1.03097,7.91147 0.75117,-7.36427 -2.1986,7.66945 1.84037,-7.17006 -3.31711,7.2561 2.88846,-6.81569 -4.36153,6.68067 3.87202,-6.30906 -5.30852,5.956 4.76909,-5.6615 -6.13692,5.09828 5.55963,-4.88746 -6.82824,4.12667 6.22597,-4.00425 -7.36702,3.06289 6.75323,-3.0316 -7.74123,1.93068 7.12964,-1.99123 -7.94252,0.75535 7.34678,-0.90636 -7.96639,-0.43687 7.39981,0.19874 -7.8123,-1.61931 7.28755,1.29941 -7.4837,-2.76559 7.01248,2.37104 -6.98793,-3.85008 6.58078,3.38971 -6.33605,-4.84857 6.00206,4.33266 -5.54264,-5.73876 5.28927,5.17884 -4.62541,-6.50075 4.45832,5.90931 -3.60486,-7.11752 3.5278,6.50779 -2.50379,-7.5753 2.51845,6.96089 -1.34678,-7.86386 1.45286,7.25851 -0.15969,-7.97677 0.3548,7.39398 1.03097,-7.91147 -0.75117,7.36427 2.1986,-7.66945 -1.84037,7.17006 3.31711,-7.2561 -2.88846,6.81569 4.36153,-6.68067 -3.87202,6.30906 5.30852,-5.956 -4.76909,5.6615 6.13692,-5.09828 -5.55963,4.88746 6.82824,-4.12667 -6.22597,4.00425 7.36702,-3.06289 -6.75323,3.0316 7.74123,-1.93068 -7.12964,1.99123 7.94252,-0.75535 -7.34678,0.90636 7.96639,0.43687 -7.39981,-0.19874 7.8123,1.61931 -7.28754,-1.29941 7.48369,2.76559 -7.01248,-2.37104 6.98793,3.85008 -6.58077,-3.38971 6.33604,4.84857 -6.00206,-4.33267 z"
       inkscape:transform-center-x="0.6097411"
       inkscape:transform-center-y="-0.24329309"
       transform="matrix(0.98126685,0.19265351,-0.19265351,0.98126685,-280.18147,-61.24287)" />
    <path
       sodipodi:type="star"
       style="fill:#00ffff;fill-opacity:1;stroke:none"
       id="path3061-0"
       sodipodi:sides="42"
       sodipodi:cx="487.2789"
       sodipodi:cy="254.67511"
       sodipodi:r1="9.8972597"
       sodipodi:r2="4.1120167"
       sodipodi:arg1="0.39060145"
       sodipodi:arg2="-0.35013131"
       inkscape:flatsided="false"
       inkscape:rounded="0"
       inkscape:randomized="0"
       d="m 496.4307,258.44344 -5.28927,-5.17884 4.62541,6.50075 -4.45832,-5.90931 3.60486,7.11752 -3.5278,-6.50779 2.50379,7.5753 -2.51845,-6.9609 1.34678,7.86387 -1.45286,-7.25851 0.15969,7.97677 -0.3548,-7.39398 -1.03097,7.91147 0.75117,-7.36427 -2.1986,7.66945 1.84037,-7.17006 -3.31711,7.2561 2.88846,-6.81569 -4.36153,6.68067 3.87202,-6.30906 -5.30852,5.956 4.76909,-5.6615 -6.13692,5.09828 5.55963,-4.88746 -6.82824,4.12667 6.22597,-4.00425 -7.36702,3.06289 6.75323,-3.0316 -7.74123,1.93068 7.12964,-1.99123 -7.94252,0.75535 7.34678,-0.90636 -7.96639,-0.43687 7.39981,0.19874 -7.8123,-1.61931 7.28755,1.29941 -7.4837,-2.76559 7.01248,2.37104 -6.98793,-3.85008 6.58078,3.38971 -6.33605,-4.84857 6.00206,4.33266 -5.54264,-5.73876 5.28927,5.17884 -4.62541,-6.50075 4.45832,5.90931 -3.60486,-7.11752 3.5278,6.50779 -2.50379,-7.5753 2.51845,6.96089 -1.34678,-7.86386 1.45286,7.25851 -0.15969,-7.97677 0.3548,7.39398 1.03097,-7.91147 -0.75117,7.36427 2.1986,-7.66945 -1.84037,7.17006 3.31711,-7.2561 -2.88846,6.81569 4.36153,-6.68067 -3.87202,6.30906 5.30852,-5.956 -4.76909,5.6615 6.13692,-5.09828 -5.55963,4.88746 6.82824,-4.12667 -6.22597,4.00425 7.36702,-3.06289 -6.75323,3.0316 7.74123,-1.93068 -7.12964,1.99123 7.94252,-0.75535 -7.34678,0.90636 7.96639,0.43687 -7.39981,-0.19874 7.8123,1.61931 -7.28754,-1.29941 7.48369,2.76559 -7.01248,-2.37104 6.98793,3.85008 -6.58077,-3.38971 6.33604,4.84857 -6.00206,-4.33267 z"
       inkscape:transform-center-x="0.6097411"
       inkscape:transform-center-y="-0.24329309"
       transform="matrix(0.98126685,0.19265351,-0.19265351,0.98126685,78.51585,-93.75714)" />
    <path
       transform="translate(97.79476,-47.63818)"
       sodipodi:type="star"
       style="fill:#00ffff;fill-opacity:1;stroke:none"
       id="path3051-2"
       sodipodi:sides="31"
       sodipodi:cx="126.46259"
       sodipodi:cy="288.28055"
       sodipodi:r1="14.396236"
       sodipodi:r2="3.9687099"
       sodipodi:arg1="0.78539816"
       sodipodi:arg2="1.8537564"
       inkscape:flatsided="false"
       inkscape:rounded="0"
       inkscape:randomized="0"
       d="m 136.64227,298.46022 -11.28774,-6.36878 9.03021,8.20956 -9.77465,-8.51062 7.19278,9.85928 -7.86138,-10.30404 5.06088,11.10536 -5.62627,-11.6756 2.7218,11.89678 -3.16083,-12.56915 0.27128,12.20114 -0.56597,-12.94813 -2.19035,12.006 2.05206,-12.79702 -4.5623,11.31932 4.58607,-12.12198 -6.74747,10.16923 6.93233,-10.95068 -8.6564,8.60281 8.99478,-9.33105 -10.21094,6.68419 10.68898,-7.32941 -11.34743,4.49192 11.94558,-5.0277 -12.01937,2.11575 12.71312,-2.52015 -12.19923,-0.34705 12.96018,0.0906 -11.87965,-2.79563 12.67666,2.69758 -11.07372,-5.12976 11.87415,5.19415 -9.81442,-7.25387 10.5855,7.47807 -8.15333,-9.08101 8.8635,9.45584 -6.15844,-10.53637 6.77861,11.04649 -3.91141,-11.56039 4.41621,12.1849 -1.50426,-12.1111 1.87301,12.82444 0.96448,-12.16599 -0.74687,12.93896 3.39373,-11.72281 -3.33618,12.52376 5.68405,-10.79968 -5.7889,11.59582 7.74166,-9.43442 -8.00463,10.19316 9.48232,-7.68292 -9.89263,8.37319 10.83477,-5.61687 -11.37564,6.21041 11.74365,-3.32087 -12.39293,3.79339 12.17174,-0.88891 -12.90284,1.22105 12.10152,1.57945 -12.88452,-1.40127 11.53586,3.98313 -12.3387,-3.96621 z"
       inkscape:transform-center-x="0.69592712"
       inkscape:transform-center-y="-0.69592712" />
    <path
       sodipodi:type="star"
       style="fill:#00ffff;fill-opacity:1;stroke:none"
       id="path3061-46"
       sodipodi:sides="42"
       sodipodi:cx="487.2789"
       sodipodi:cy="254.67511"
       sodipodi:r1="9.8972597"
       sodipodi:r2="4.1120167"
       sodipodi:arg1="0.39060145"
       sodipodi:arg2="-0.35013131"
       inkscape:flatsided="false"
       inkscape:rounded="0"
       inkscape:randomized="0"
       d="m 496.4307,258.44344 -5.28927,-5.17884 4.62541,6.50075 -4.45832,-5.90931 3.60486,7.11752 -3.5278,-6.50779 2.50379,7.5753 -2.51845,-6.9609 1.34678,7.86387 -1.45286,-7.25851 0.15969,7.97677 -0.3548,-7.39398 -1.03097,7.91147 0.75117,-7.36427 -2.1986,7.66945 1.84037,-7.17006 -3.31711,7.2561 2.88846,-6.81569 -4.36153,6.68067 3.87202,-6.30906 -5.30852,5.956 4.76909,-5.6615 -6.13692,5.09828 5.55963,-4.88746 -6.82824,4.12667 6.22597,-4.00425 -7.36702,3.06289 6.75323,-3.0316 -7.74123,1.93068 7.12964,-1.99123 -7.94252,0.75535 7.34678,-0.90636 -7.96639,-0.43687 7.39981,0.19874 -7.8123,-1.61931 7.28755,1.29941 -7.4837,-2.76559 7.01248,2.37104 -6.98793,-3.85008 6.58078,3.38971 -6.33605,-4.84857 6.00206,4.33266 -5.54264,-5.73876 5.28927,5.17884 -4.62541,-6.50075 4.45832,5.90931 -3.60486,-7.11752 3.5278,6.50779 -2.50379,-7.5753 2.51845,6.96089 -1.34678,-7.86386 1.45286,7.25851 -0.15969,-7.97677 0.3548,7.39398 1.03097,-7.91147 -0.75117,7.36427 2.1986,-7.66945 -1.84037,7.17006 3.31711,-7.2561 -2.88846,6.81569 4.36153,-6.68067 -3.87202,6.30906 5.30852,-5.956 -4.76909,5.6615 6.13692,-5.09828 -5.55963,4.88746 6.82824,-4.12667 -6.22597,4.00425 7.36702,-3.06289 -6.75323,3.0316 7.74123,-1.93068 -7.12964,1.99123 7.94252,-0.75535 -7.34678,0.90636 7.96639,0.43687 -7.39981,-0.19874 7.8123,1.61931 -7.28754,-1.29941 7.48369,2.76559 -7.01248,-2.37104 6.98793,3.85008 -6.58077,-3.38971 6.33604,4.84857 -6.00206,-4.33267 z"
       inkscape:transform-center-x="0.6097411"
       inkscape:transform-center-y="-0.24329309"
       transform="matrix(0.98126685,0.19265351,-0.19265351,0.98126685,-141.81436,-157.50945)" />
  </g>
  <g
     inkscape:groupmode="layer"
     id="layer2"
     inkscape:label="Layer">
    <path
       style="opacity:0.81512607;fill:#00ffff;stroke:#000000;stroke-width:1px;stroke-linecap:butt;stroke-linejoin:miter;stroke-opacity:1;filter:url(#filter4085-2)"
       d="m 44.073136,446.37167 c 18.38478,5.65685 101.823384,25.45584 155.563504,31.11269 53.74011,5.65686 135.7645,14.14214 175.36248,9.8995 39.59798,-4.24264 168.29141,2.82842 197.9899,-11.31371 29.69848,-14.14214 104.6518,-22.62742 108.89444,-28.28427 4.24264,-5.65686 12.72792,28.28427 4.24264,53.74011 -8.48528,25.45585 -4.24264,107.48023 -63.63961,173.94827 -59.39697,66.46804 -120.20815,137.17872 -250.3158,137.17872 -130.10765,0 -216.37467,-62.2254 -258.80108,-124.4508 C 70.943196,625.97679 35.587856,494.45493 44.073136,446.37167 z"
       id="path4047"
       inkscape:connector-curvature="0"
       sodipodi:nodetypes="cssssssssc" />
  </g>
  <g
     inkscape:groupmode="layer"
     id="layer3"
     inkscape:label="Layer#1">
    <path
       style="fill:#008000;stroke:#000000;stroke-width:1px;stroke-linecap:butt;stroke-linejoin:miter;stroke-opacity:1"
       d="m 354.22917,471.2748 c 8.84354,8.84354 7.07483,3.53742 10.61225,16.80272 3.53741,13.26531 1.40239,27.92381 0.51803,35.88299 -0.88435,7.95919 -4.4662,21.84982 -9.77233,22.73418 -5.30612,0.88435 -15.29302,3.01937 -18.3124,-4.31448 -3.10399,-7.53937 0.63955,-16.3829 -11.50581,-19.50943 -6.755,-1.73891 -22.07136,1.01562 -26.36967,7.65572 -9.57616,14.79341 -14.21088,32.62285 -8.21821,47.54973 8.43326,21.00601 40.05494,26.73599 46.24542,27.62034 6.19048,0.88436 64.95561,0.15907 76.93879,-0.88435 23.79786,-2.07217 34.99576,-9.39113 45.20936,-26.53061 8.7991,-14.7658 18.3904,-42.0617 8.7362,-52.17688 -15.1505,-15.87392 -57.55503,-7.95918 -61.9768,4.43098 -2.8042,7.85759 -10.14647,18.56702 -14.30139,16.15898 -11.37659,-6.59344 -10.38847,-11.74642 -11.27283,-19.7056 -0.88435,-7.95919 -6.19047,-39.79592 -5.30612,-43.33333 0.88436,-3.53742 0.88436,-12.38096 5.30612,-15.91837 4.42177,-3.53742 15.91838,-14.14966 15.91838,-14.14966 l -14.14967,1.76871 -9.72789,-7.07483 -11.4966,8.84353 -13.2653,-4.42177 3.53741,9.7279 -13.26531,0.88435 z m 12.13168,40.59057 c 2.81399,-0.31266 12.50665,0.31267 12.50665,0.31267 z"
       id="path3009"
       inkscape:connector-curvature="0"
       sodipodi:nodetypes="csssssssssssssssscccccccc" />
    <path
       style="fill:#fffc48;fill-opacity:1;stroke:#faffa9;stroke-width:1px;stroke-linecap:butt;stroke-linejoin:miter;stroke-opacity:1"
       d="m 325.09482,687.30993 c 42.44898,16.80272 91.08844,39.79592 91.08844,39.79592 0,0 -36.25851,25.64626 -63.67347,11.4966 -27.41497,-14.14966 -27.41497,-51.29252 -27.41497,-51.29252 z"
       id="path3011"
       inkscape:connector-curvature="0" />
  </g>
</svg>
