<?xml version="1.0" encoding="UTF-8" standalone="no"?>
<!-- Created with Inkscape (http://www.inkscape.org/) -->

<svg
   xmlns:dc="http://purl.org/dc/elements/1.1/"
   xmlns:cc="http://creativecommons.org/ns#"
   xmlns:rdf="http://www.w3.org/1999/02/22-rdf-syntax-ns#"
   xmlns:svg="http://www.w3.org/2000/svg"
   xmlns="http://www.w3.org/2000/svg"
   xmlns:xlink="http://www.w3.org/1999/xlink"
   xmlns:sodipodi="http://sodipodi.sourceforge.net/DTD/sodipodi-0.dtd"
   xmlns:inkscape="http://www.inkscape.org/namespaces/inkscape"
   width="744.09448819"
   height="1052.3622047"
   id="svg2"
   version="1.1"
   inkscape:version="0.48.4 r9939"
   sodipodi:docname="drawing-1.svg"
   enable-background="new">
  <defs
     id="defs4">
    <linearGradient
       id="linearGradient3013">
      <stop
         style="stop-color:#000000;stop-opacity:1;"
         offset="0"
         id="stop3015" />
      <stop
         style="stop-color:#7cafff;stop-opacity:1;"
         offset="1"
         id="stop3017" />
    </linearGradient>
    <radialGradient
       inkscape:collect="always"
       xlink:href="#linearGradient3013"
       id="radialGradient3803"
       cx="411.57101"
       cy="720.6734"
       fx="411.57101"
       fy="720.6734"
       r="82.543892"
       gradientUnits="userSpaceOnUse"
       gradientTransform="matrix(8.2432617,0.01297569,-0.00251463,1.5974991,-2979.3698,-471.88767)" />
  </defs>
  <sodipodi:namedview
     id="base"
     pagecolor="#ffffff"
     bordercolor="#666666"
     borderopacity="1.0"
     inkscape:pageopacity="0.0"
     inkscape:pageshadow="2"
     inkscape:zoom="0.66839438"
     inkscape:cx="236.30419"
     inkscape:cy="475.90466"
     inkscape:document-units="px"
     inkscape:current-layer="layer3"
     showgrid="false"
     inkscape:window-width="1920"
     inkscape:window-height="1033"
     inkscape:window-x="0"
     inkscape:window-y="25"
     inkscape:window-maximized="1" />
  <metadata
     id="metadata7">
    <rdf:RDF>
      <cc:Work
         rdf:about="">
        <dc:format>image/svg+xml</dc:format>
        <dc:type
           rdf:resource="http://purl.org/dc/dcmitype/StillImage" />
        <dc:title />
      </cc:Work>
    </rdf:RDF>
  </metadata>
  <g
     inkscape:groupmode="layer"
     id="layer3"
     inkscape:label="Layer#1"
     style="display:inline">
    <path
       sodipodi:type="arc"
       style="opacity:0.81512607;fill:#1a1a1a;fill-opacity:1;stroke:none"
       id="path2987-5"
       sodipodi:cx="411.46881"
       sodipodi:cy="727.18927"
       sodipodi:rx="82.543892"
       sodipodi:ry="82.543892"
       d="m 494.0127,727.18927 a 82.543892,82.543892 0 1 1 -165.08778,0 82.543892,82.543892 0 1 1 165.08778,0 z"
       transform="matrix(4.0909092,0,0,4.0909092,-1309.5039,-2454.5771)" />
    <path
       sodipodi:type="arc"
       style="opacity:0.81512607;fill:url(#radialGradient3803);fill-opacity:1;stroke:none;display:inline"
       id="path2987-5-0"
       sodipodi:cx="411.46881"
       sodipodi:cy="727.18927"
       sodipodi:rx="82.543892"
       sodipodi:ry="82.543892"
       d="m 494.0127,727.18927 a 82.543892,82.543892 0 1 1 -165.08778,0 82.543892,82.543892 0 1 1 165.08778,0 z"
       transform="matrix(4.0909092,0,0,4.0909092,-1309.1885,-2455.0916)" />
  </g>
  <g
     inkscape:label="Layer 1"
     inkscape:groupmode="layer"
     id="layer1"
     style="display:inline">
    <path
       sodipodi:type="star"
       style="opacity:0.81512607;fill:#aaccee;fill-opacity:1;stroke:none"
       id="path2985"
       sodipodi:sides="6"
       sodipodi:cx="281.39963"
       sodipodi:cy="223.17125"
       sodipodi:r1="77.055588"
       sodipodi:r2="34.289738"
       sodipodi:arg1="0.94677327"
       sodipodi:arg2="1.470372"
       inkscape:flatsided="false"
       inkscape:rounded="0"
       inkscape:randomized="0"
       d="m 326.42357,285.7045 -41.5862,-28.41627 -35.08116,36.14153 3.81612,-50.22285 -48.84006,-12.31041 45.40232,-21.80657 -13.75891,-48.45194 41.58621,28.41628 35.08115,-36.14153 -3.81611,50.22285 48.84006,12.31041 -45.40232,21.80657 z"
       transform="translate(94.879285,85.754523)" />
    <path
       sodipodi:type="arc"
       style="opacity:0.81512607;fill:#eec73e;fill-opacity:1;stroke:none"
       id="path2987"
       sodipodi:cx="411.46881"
       sodipodi:cy="727.18927"
       sodipodi:rx="82.543892"
       sodipodi:ry="82.543892"
       d="m 494.0127,727.18927 a 82.543892,82.543892 0 1 1 -165.08778,0 82.543892,82.543892 0 1 1 165.08778,0 z"
       transform="translate(-33.939215,-8.0453629)" />
    <path
       sodipodi:type="star"
       style="opacity:0.81512607;fill:#eec73e;fill-opacity:1;stroke:none"
       id="path2985-8"
       sodipodi:sides="6"
       sodipodi:cx="281.39963"
       sodipodi:cy="223.17125"
       sodipodi:r1="77.055588"
       sodipodi:r2="34.289738"
       sodipodi:arg1="0.94677327"
       sodipodi:arg2="1.470372"
       inkscape:flatsided="false"
       inkscape:rounded="0"
       inkscape:randomized="0"
       d="m 326.42357,285.7045 -41.5862,-28.41627 -35.08116,36.14153 3.81612,-50.22285 -48.84006,-12.31041 45.40232,-21.80657 -13.75891,-48.45194 41.58621,28.41628 35.08115,-36.14153 -3.81611,50.22285 48.84006,12.31041 -45.40232,21.80657 z"
       transform="matrix(0.12775563,0,0,0.12775563,165.23542,352.95297)" />
    <path
       sodipodi:type="star"
       style="opacity:0.81512607;fill:#aaccee;fill-opacity:1;stroke:none"
       id="path2985-8-3"
       sodipodi:sides="6"
       sodipodi:cx="281.39963"
       sodipodi:cy="223.17125"
       sodipodi:r1="77.055588"
       sodipodi:r2="34.289738"
       sodipodi:arg1="0.94677327"
       sodipodi:arg2="1.470372"
       inkscape:flatsided="false"
       inkscape:rounded="0"
       inkscape:randomized="0"
       d="m 326.42357,285.7045 -41.5862,-28.41627 -35.08116,36.14153 3.81612,-50.22285 -48.84006,-12.31041 45.40232,-21.80657 -13.75891,-48.45194 41.58621,28.41628 35.08115,-36.14153 -3.81611,50.22285 48.84006,12.31041 -45.40232,21.80657 z"
       transform="matrix(0.12775563,0,0,0.12775563,519.17363,320.43567)" />
  </g>
</svg>
